<svg width="235" height="62" viewBox="0 0 235 62" fill="none" xmlns="http://www.w3.org/2000/svg">
<path fill-rule="evenodd" clip-rule="evenodd" d="M27.646 24.1237C78.3937 19.9632 100.036 44.4197 106.357 56.6367C107.877 52.9678 92.058 33.8519 72.1703 26.9453C60.7367 22.9739 33.0905 20.3943 27.646 24.1237Z" fill="#D1A586"/>
<path fill-rule="evenodd" clip-rule="evenodd" d="M60.835 23.6925C56.124 23.5412 47.7681 20.1371 48.4033 1.97438C64.3815 10.6208 63.0885 19.5471 60.835 23.6925Z" fill="#D1A586"/>
<path fill-rule="evenodd" clip-rule="evenodd" d="M42.9361 48.5576C78.8852 35.5615 99.3703 49.0266 106.357 56.6367C106.736 53.6789 91.5211 42.9446 75.7546 41.8477C66.6955 41.2199 46.1499 44.7828 42.9436 48.5576H42.9361Z" fill="#D1A586"/>
<path fill-rule="evenodd" clip-rule="evenodd" d="M63.648 0C67.8373 20.2279 77.093 26.2191 85.5321 33.6022L84.8061 34.9034C81.547 32.2709 78.4088 29.1467 75.8756 25.5988C70.5974 18.2082 62.1205 4.71279 63.648 0Z" fill="#D1A586"/>
<path fill-rule="evenodd" clip-rule="evenodd" d="M42.3387 48.308C41.9077 52.9905 38.0209 61.1074 19.9858 59.3826C29.544 43.9885 38.3536 45.8116 42.3387 48.308Z" fill="#D1A586"/>
<path fill-rule="evenodd" clip-rule="evenodd" d="M63.0355 44.6845C64.3135 48.8375 63.8295 57.1435 47.8135 62C50.5887 45.4863 58.7555 43.9507 63.0355 44.6845Z" fill="#D1A586"/>
<path fill-rule="evenodd" clip-rule="evenodd" d="M69.2136 40.9475C69.9622 36.6811 68.465 28.5339 52.033 25.7123C56.8121 41.6964 65.0772 42.2033 69.2136 40.9475Z" fill="#D1A586"/>
<path fill-rule="evenodd" clip-rule="evenodd" d="M87.2864 46.4092C86.9386 50.7438 83.4374 58.2782 66.756 56.8863C75.4219 42.5588 83.5811 44.1474 87.2864 46.4092Z" fill="#D1A586"/>
<path fill-rule="evenodd" clip-rule="evenodd" d="M101.45 44.8736C105.178 42.6345 110.365 36.144 101.699 21.8165C92.7234 35.9473 97.7747 42.5588 101.45 44.8736Z" fill="#D1A586"/>
<path fill-rule="evenodd" clip-rule="evenodd" d="M85.4943 29.1694C89.2223 26.9302 94.4173 20.4397 85.7514 6.11225C76.7754 20.243 81.8192 26.8546 85.4943 29.1694Z" fill="#D1A586"/>
<path fill-rule="evenodd" clip-rule="evenodd" d="M10.3293 33.2013C4.65034 38.2394 4.39323 47.7255 12.2046 46.7648C20.0161 45.8116 25.6345 24.6986 25.6345 24.6986C25.6345 24.6986 14.3295 13.9719 4.74864 19.4866C-4.83981 25.0012 3.90928 30.8336 10.3369 33.1938L10.3293 33.2013Z" fill="#D1A586"/>
<path fill-rule="evenodd" clip-rule="evenodd" d="M207.354 24.1237C156.606 19.9632 134.964 44.4197 128.642 56.6367C127.13 52.9678 142.942 33.8519 162.829 26.9453C174.263 22.9739 201.909 20.3943 207.354 24.1237Z" fill="#D1A586"/>
<path fill-rule="evenodd" clip-rule="evenodd" d="M174.165 23.6925C178.876 23.5412 187.232 20.1371 186.596 1.97438C170.611 10.6208 171.911 19.5471 174.165 23.6925Z" fill="#D1A586"/>
<path fill-rule="evenodd" clip-rule="evenodd" d="M192.056 48.5576C156.107 35.5615 135.622 49.0266 128.635 56.6367C128.257 53.6789 143.471 42.9446 159.238 41.8477C168.297 41.2199 188.842 44.7828 192.049 48.5576H192.056Z" fill="#D1A586"/>
<path fill-rule="evenodd" clip-rule="evenodd" d="M171.352 0C167.162 20.2279 157.907 26.2191 149.468 33.6022L150.194 34.9034C153.453 32.2709 156.591 29.1467 159.124 25.5988C164.402 18.2006 172.879 4.71279 171.352 0Z" fill="#D1A586"/>
<path fill-rule="evenodd" clip-rule="evenodd" d="M192.661 48.308C193.092 52.9905 196.979 61.1074 215.014 59.3826C205.456 43.9885 196.646 45.8116 192.661 48.308Z" fill="#D1A586"/>
<path fill-rule="evenodd" clip-rule="evenodd" d="M171.957 44.6845C170.679 48.8375 171.163 57.1435 187.179 62C184.404 45.4863 176.237 43.9507 171.957 44.6845Z" fill="#D1A586"/>
<path fill-rule="evenodd" clip-rule="evenodd" d="M165.779 40.9475C165.03 36.6811 166.527 28.5339 182.959 25.7123C178.18 41.6964 169.915 42.2033 165.779 40.9475Z" fill="#D1A586"/>
<path fill-rule="evenodd" clip-rule="evenodd" d="M147.713 46.4092C148.061 50.7438 151.562 58.2782 168.244 56.8863C159.578 42.5588 151.419 44.1474 147.713 46.4092Z" fill="#D1A586"/>
<path fill-rule="evenodd" clip-rule="evenodd" d="M133.55 44.8736C129.822 42.6345 124.635 36.144 133.293 21.8165C142.269 35.9473 137.217 42.5512 133.55 44.8736Z" fill="#D1A586"/>
<path fill-rule="evenodd" clip-rule="evenodd" d="M149.505 29.1694C145.777 26.9302 140.59 20.4397 149.248 6.11225C158.224 20.243 153.181 26.8546 149.505 29.1694Z" fill="#D1A586"/>
<path fill-rule="evenodd" clip-rule="evenodd" d="M224.67 33.2013C230.349 38.2394 230.607 47.7255 222.795 46.7648C214.984 45.8116 209.365 24.6986 209.365 24.6986C209.365 24.6986 220.663 13.9719 230.251 19.4866C239.84 25.0012 231.09 30.8336 224.67 33.1938V33.2013Z" fill="#D1A586"/>
<path fill-rule="evenodd" clip-rule="evenodd" d="M100.104 47.1279C98.4478 45.2064 97.4571 42.7479 97.4571 40.07C97.4571 35.0395 100.973 30.7806 105.805 29.3736C107.59 25.3416 111.802 22.5049 116.71 22.5049C120.453 22.5049 123.795 24.154 125.958 26.726C131.917 27.3009 136.56 32.0666 136.56 37.8536V38.0957C137.883 39.9036 138.662 42.0974 138.662 44.4651C138.662 48.202 136.726 51.5154 133.747 53.5427C132.34 58.2328 127.78 61.6672 122.381 61.6672C120.173 61.6672 118.109 61.0922 116.339 60.0937C114.88 60.7064 113.261 61.0468 111.56 61.0468C105.034 61.0468 99.7408 56.039 99.7408 49.8587C99.7408 48.9131 99.8694 47.9902 100.096 47.1127L100.104 47.1279Z" fill="#D1A586"/>
<path fill-rule="evenodd" clip-rule="evenodd" d="M112.914 25.9619V28.9122C111.742 29.5249 110.774 30.3797 110.093 31.3631C110.048 29.124 111.144 27.0739 112.914 25.9619ZM112.914 31.5295C111.038 31.348 109.148 32.0137 107.87 33.5039C106.131 35.5237 106.07 38.4436 107.507 40.6828C107.378 38.7235 108.082 36.56 109.617 34.7748C110.569 33.6628 111.711 32.8533 112.914 32.3541V31.5371V31.5295ZM112.914 47.9373V50.3429C111 49.246 109.904 47.1354 109.972 44.8963C110.615 46.0764 111.628 47.143 112.914 47.9373ZM112.914 55.5549C111.416 55.1691 109.942 54.4126 108.626 53.2931C106.433 51.4246 105.17 48.9434 104.959 46.553C103.106 49.6847 103.605 53.6864 106.327 56.0012C108.187 57.5822 110.653 58.021 112.921 57.3931V55.5549H112.914ZM102.244 44.3819C100.187 42.9976 99.0905 40.5315 99.6652 38.0957C100.278 35.501 102.592 33.7308 105.253 33.572C103.597 34.6235 102.259 36.4693 101.722 38.7614C101.246 40.7887 101.48 42.7857 102.244 44.3819ZM112.914 57.3931V55.5549C113.904 55.8121 114.902 55.9104 115.863 55.8424C114.978 56.5837 113.965 57.0981 112.914 57.3931ZM112.914 50.3504V47.9449C113.322 48.1945 113.761 48.4214 114.222 48.6105C115.553 49.1628 116.929 49.3746 118.207 49.2838V50.5471C116.763 51.2128 115.099 51.3036 113.556 50.6681C113.33 50.5774 113.11 50.4639 112.906 50.3504H112.914ZM112.914 32.3541V31.5371C113.435 31.59 113.957 31.7035 114.471 31.8926C113.95 31.991 113.428 32.1423 112.914 32.3616V32.3541ZM112.914 25.9695C113.496 25.5988 114.154 25.3341 114.865 25.1979C116.029 24.971 117.186 25.1223 118.214 25.5686V27.9439C117.322 27.838 116.377 27.8682 115.417 28.0573C114.509 28.2313 113.67 28.5339 112.914 28.9273V25.9695ZM118.214 34.0259V35.2211C117.398 35.1303 116.604 35.1681 115.855 35.327C116.558 34.7218 117.368 34.2831 118.214 34.0259ZM118.214 39.5329V44.7904C116.778 44.7753 115.621 43.6027 115.621 42.1655C115.621 40.7282 116.778 39.5556 118.214 39.5405V39.5329ZM118.214 54.9346V56.8787C117.277 56.1676 116.483 55.2221 115.931 54.1025C116.626 54.4732 117.398 54.7531 118.214 54.9346ZM118.214 56.8787V54.9346C118.963 55.101 119.75 55.1767 120.566 55.1691V58.0891C119.727 57.8319 118.925 57.4234 118.214 56.8787ZM118.214 50.5395V49.2762C119.024 49.2233 119.795 49.0417 120.498 48.7618C119.871 49.541 119.084 50.1462 118.214 50.5395ZM118.214 44.7828V39.5254H118.252C119.25 39.5254 120.12 40.0852 120.566 40.9097V43.3985C120.12 44.223 119.25 44.7828 118.252 44.7828H118.214ZM118.214 35.2135V34.0183C118.978 33.7914 119.78 33.7157 120.566 33.7989V35.8187C119.787 35.4934 119.001 35.2967 118.214 35.206V35.2135ZM118.214 27.9287V25.5534C119.114 25.9392 119.923 26.5595 120.566 27.3387V28.5642C119.848 28.2465 119.054 28.0271 118.214 27.9212V27.9287ZM120.566 31.8699C120.46 31.8699 120.362 31.8775 120.256 31.8851C120.362 31.8019 120.46 31.7186 120.566 31.6354V31.8699ZM120.566 58.0891V55.1691C120.687 55.1691 120.801 55.1691 120.922 55.1615V58.195C120.801 58.1647 120.68 58.1345 120.566 58.0966V58.0891ZM120.566 43.3985V40.9097C120.763 41.2804 120.876 41.704 120.876 42.1503C120.876 42.5966 120.763 43.0203 120.566 43.3909V43.3985ZM120.566 35.8263V33.8065C120.687 33.8216 120.808 33.8368 120.922 33.8594V35.9851C120.801 35.9322 120.68 35.8792 120.566 35.8263ZM120.566 31.8775V31.6506C120.687 31.5598 120.801 31.4766 120.922 31.3934V31.8775C120.801 31.8775 120.68 31.8775 120.566 31.8775ZM120.566 28.5793V27.3538C120.695 27.5127 120.808 27.6715 120.922 27.838V28.7457C120.801 28.6852 120.687 28.6247 120.566 28.5717V28.5793ZM120.922 58.195V55.1615C121.791 55.1162 122.691 54.9724 123.583 54.7077C124.143 54.5412 124.68 54.337 125.187 54.0949V57.9075C124.997 57.9832 124.793 58.0512 124.597 58.1118C123.364 58.4824 122.101 58.4824 120.922 58.195ZM120.922 33.867C121.648 33.9956 122.358 34.2604 123.009 34.6764C124.014 35.3194 124.748 36.2272 125.194 37.2635V40.123C124.544 38.7689 123.455 37.5207 122.003 36.5903C121.648 36.3633 121.292 36.1667 120.922 36.0002V33.867ZM120.922 31.8775V31.3934C122.215 30.5234 123.712 30.0771 125.187 30.0695V32.9214C123.795 32.233 122.328 31.8851 120.922 31.8699V31.8775ZM120.922 28.7533V27.8455C121.186 28.2465 121.413 28.6852 121.595 29.1467C121.383 29.0029 121.156 28.8743 120.922 28.7533ZM125.187 48.777V50.8875C123.924 51.296 122.517 51.2657 121.217 50.8043C122.608 50.5395 123.999 49.8512 125.187 48.777ZM131.168 50.2067C131.349 50.2067 131.531 50.184 131.712 50.1613V49.8209C131.538 49.9571 131.349 50.0857 131.168 50.2067ZM125.187 57.9075V54.0949C127.175 53.1569 128.733 51.6969 129.663 50.0251C130.064 53.4292 128.257 56.682 125.187 57.9075ZM125.187 50.8875C126.177 50.5698 127.092 49.9873 127.803 49.1476C129.527 47.1127 129.58 44.2003 128.121 41.9688C128.264 43.928 127.569 46.0991 126.049 47.8919C125.776 48.2096 125.489 48.5122 125.187 48.777V50.8875ZM125.187 40.1154V37.256C125.678 38.3982 125.807 39.7069 125.542 40.9778C125.444 40.6903 125.33 40.3953 125.187 40.1154ZM125.187 32.929C125.988 33.3223 126.759 33.8292 127.485 34.4495C129.678 36.3104 130.941 38.7992 131.153 41.1896C131.372 40.8189 131.554 40.4407 131.712 40.0473V34.3965C131.304 33.398 130.661 32.4827 129.792 31.7413C128.468 30.6142 126.835 30.0695 125.187 30.0771V32.929ZM131.712 50.1613C133.966 49.8738 135.932 48.4139 136.658 46.2125C137.505 43.6859 136.461 40.9551 134.276 39.427C135.138 41.1896 135.304 43.4666 134.556 45.6981C133.981 47.4305 132.953 48.8526 131.705 49.8209V50.1613H131.712ZM131.712 40.0473V34.3965C132.438 36.1591 132.446 38.194 131.712 40.0473Z" fill="white"/>
</svg>
